# xmcd
#
# Track frame offsets: 
#        150
#        22307
#        43592
#        65035
#        87782
#        107680
#        129727
#        153180
#        171970
#        200467
#
# Disc length: 2944 seconds
#
# Revision: 0
# Processed by: cddbd v1.5.2PL0 Copyright (c) Steve Scherf et al.
# Submitted via: ExactAudioCopy v1.0b3
#
DISCID=880b7e0a
DTITLE=Che Linh - Hoa Su Nha Nang
DYEAR=1991
DGENRE=
TTITLE0=Giot le dai trang
TTITLE1=Ao em chua mac mot lan
TTITLE2=Vong nhan cuoi
TTITLE3=Noi voi nguoi tinh
TTITLE4=Hoa su nha nang
TTITLE5=Dem buon tinh le
TTITLE6=Hai dua gian nhau
TTITLE7=Huong tinh cu
TTITLE8=Can nha mau tim
TTITLE9=Ao dep nang dau
EXTD=
EXTT0=
EXTT1=
EXTT2=
EXTT3=
EXTT4=
EXTT5=
EXTT6=
EXTT7=
EXTT8=
EXTT9=
PLAYORDER=
